# xmcd
#
# Track frame offsets: 
#        150
#        15455
#        31360
#        51395
#        68736
#        83404
#        99317
#        116378
#        129567
#        144095
#        158679
#        175377
#        194762
#        211391
#        228403
#        243566
#        263674
#
# Disc length: 4164 seconds
#
# Revision: 2
# Processed by: cddbd v1.5.2PL0 Copyright (c) Steve Scherf et al.
# Submitted via: ExactAudioCopyFreeDBPlugin 1.0
#
DISCID=df104211
DTITLE=Hermes House Band - Champions!
DYEAR=1900
DGENRE=Country
TTITLE0=Chelsa Dagger
TTITLE1=Football´s Coming Home
TTITLE2=I Will Survive
TTITLE3=Que Sera Sera
TTITLE4=Country Roads
TTITLE5=Seven Nation Army
TTITLE6=Sweet Carolina
TTITLE7=Na Na Hey Hey Kiss Him Goodbye
TTITLE8=Hit The Road Jack
TTITLE9=Go West
TTITLE10=Those Were The Days
TTITLE11=Live is Life
TTITLE12=This The Way To Amarillo
TTITLE13=Come On Eileen
TTITLE14=The Moment Of Truth
TTITLE15=Please Don ´t Go
TTITLE16=Football Megamix
EXTD=
EXTT0=
EXTT1=
EXTT2=
EXTT3=
EXTT4=
EXTT5=
EXTT6=
EXTT7=
EXTT8=
EXTT9=
EXTT10=
EXTT11=
EXTT12=
EXTT13=
EXTT14=
EXTT15=
EXTT16=
PLAYORDER=
